<svg width="410" height="64" viewBox="0 0 410 64" fill="none" xmlns="http://www.w3.org/2000/svg">
<path d="M291.827 57.2702C291.585 56.5525 290.854 56.1245 290.109 56.2627C290.001 56.2829 289.893 56.3031 289.789 56.3233C287.117 56.8187 285.607 55.9897 285.017 53.6242C284.839 52.9098 284.788 52.1483 284.785 51.4069C284.765 46.3322 284.798 41.254 284.761 36.1759C284.751 34.7674 284.667 33.3454 284.438 31.957C283.626 27.0406 280.906 23.7282 276.027 22.377C272.064 21.2785 268.064 21.2953 264.071 22.2051C261.214 22.8555 258.619 24.0214 256.658 26.3061C254.879 28.3784 254.508 31.7144 255.775 33.9249C256.213 34.6899 256.715 35.0032 257.696 34.8988C258.056 34.8617 260.435 34.5281 261.864 34.3563C262.265 34.3057 262.555 33.9519 262.525 33.5509C262.44 32.3783 262.329 31.2696 262.363 30.1677C262.43 28.0785 263.313 26.4408 265.46 25.8174C266.315 25.5681 267.225 25.4165 268.115 25.3895C271.404 25.2884 274.13 26.3397 275.862 29.3422C276.286 30.0767 276.607 30.8316 276.839 31.5999C277.786 34.6932 276.024 37.9585 272.93 38.9087C272.93 38.9087 272.9 38.9155 272.886 38.9222C268.196 40.3611 263.495 41.7662 258.828 43.2792C257.005 43.8689 255.431 44.9439 254.316 46.5647C252.924 48.5899 252.759 50.8543 252.992 53.2198C253.372 57.0883 256.095 60.3872 260.112 61.2869C265.079 62.3989 269.759 61.6778 273.887 58.5035C274.517 58.0183 275.124 57.5095 275.73 56.9872C276.684 56.165 278.153 56.5019 278.669 57.651C278.672 57.6611 278.676 57.6679 278.679 57.6746C280.044 60.6905 282.089 61.9103 285.324 61.7014C287.74 61.5464 289.647 60.4209 291.389 58.9248C291.858 58.5204 292.036 57.87 291.838 57.2837L291.831 57.2635L291.827 57.2702ZM277.402 51.5822C277.402 51.8046 277.253 52.1112 277.075 52.2292C275.35 53.3782 273.692 54.6789 271.842 55.5786C269.314 56.8052 266.605 56.9097 263.947 55.8347C262.022 55.0563 260.995 53.5265 260.739 51.5215C260.506 49.7154 260.483 47.8452 262.11 46.6152C263.084 45.8806 264.253 45.328 265.416 44.9405C269.085 43.7173 272.792 42.6087 276.485 41.463H276.495C276.954 41.3181 277.419 41.6618 277.419 42.1403C277.419 45.3482 277.422 48.4652 277.405 51.5822H277.402Z" fill="#22201D"/>
<path d="M190.241 22.751C185.183 20.965 180.061 21.0762 175.054 22.97C170.474 24.702 166.983 27.8089 164.628 32.1356C162.603 35.8557 161.952 39.8556 162.229 44.0172C162.589 49.4424 164.692 54.069 168.955 57.5566C172.115 60.1412 176.011 61.4688 180.048 61.8159C182.295 62.008 185.237 61.8395 187.431 61.3307C192.741 60.1007 196.29 57.132 199.275 52.5021C202.419 47.6295 203.157 42.2716 202.096 36.7083C200.798 29.888 196.849 25.0862 190.238 22.7476L190.241 22.751ZM194.777 42.5143C194.77 46.0996 194.406 49.0313 192.997 51.754C191.198 55.2315 188.354 57.0512 184.432 57.2028C178.727 57.4252 174.72 54.7227 172.213 49.8063C169.494 44.4687 169.076 38.8278 171.03 33.1532C172.833 27.9167 176.877 25.5849 182.292 26.1914C188.068 26.8351 191.397 30.4642 193.395 35.5862C193.82 36.6712 194.126 37.8169 194.339 38.9626C194.591 40.3206 194.682 41.7055 194.777 42.5143Z" fill="#22201D"/>
<path d="M360.782 50.2679H360.778C360.552 50.177 360.34 50.0826 360.145 49.9579C359.599 49.6176 359.289 49.7456 358.895 50.2208C357.742 51.6125 356.303 52.6672 354.719 53.5264C351.35 55.3528 347.741 55.7336 344.017 55.1843C338.919 54.4295 335.566 51.5349 333.935 46.6691C332.877 43.5016 332.739 40.2431 333.194 36.9576C333.544 34.4068 334.393 32.0278 336.085 30.0464C339.33 26.2386 343.535 25.2412 348.293 26.0937C350.305 26.4509 351.744 27.6067 352.411 29.578C352.647 30.2721 352.806 31.0168 352.843 31.7481C352.843 31.7615 352.846 31.775 352.846 31.7851C352.95 33.8811 354.585 35.5761 356.677 35.7412C356.711 35.7412 356.745 35.7479 356.778 35.7513C358.281 35.8827 359.215 35.1043 359.932 33.9889C361.078 32.203 360.953 30.2755 360.246 28.3851C359.127 25.3793 356.758 23.6608 353.857 22.6768C348.907 21.0021 343.926 21.1874 339.037 22.9195C333.288 24.9548 329.363 28.9546 327.337 34.6662C325.346 40.2903 325.38 45.9345 327.785 51.4945C329.47 55.3899 332.274 58.1766 336.051 59.9996C339.155 61.4958 342.464 61.8462 345.877 61.7148C350.413 61.5396 354.44 60.2153 357.695 56.9197C359.269 55.3292 360.488 53.5332 361.274 51.3901C361.439 50.9419 361.223 50.4432 360.782 50.2679Z" fill="#22201D"/>
<path d="M323.516 21.8985C320.911 21.0797 318.451 21.3998 316.234 22.9835C313.956 24.6111 312.494 26.9564 310.991 29.2512C310.472 30.0431 309.983 30.8552 309.488 31.6673C309.431 31.7616 309.326 31.8189 309.218 31.8088C309.175 31.8054 309.141 31.7886 309.097 31.7582C309.016 31.7009 308.969 31.6066 308.969 31.5055C309.067 28.4728 309.165 25.44 309.262 22.4141C309.279 21.9254 308.902 21.5143 308.41 21.4874C307.166 21.42 306.3 21.6424 303.925 22.4579C301.603 23.2531 299.281 24.0484 296.949 24.8436C296.515 24.9919 296.195 25.3659 296.114 25.8141V25.8208C295.969 26.606 296.309 27.0137 297.037 27.317C298.338 27.8561 299.578 28.5469 300.885 29.076C301.465 29.3118 301.61 29.6084 301.606 30.1947C301.586 36.3377 301.613 52.5223 301.566 54.47C301.536 55.737 300.922 56.5356 299.699 57.1456C298.574 57.7049 296.498 57.9273 296.178 57.9644C295.601 58.0318 295.167 58.4833 295.167 59.0191V59.8278C295.167 60.4142 295.682 60.8893 296.319 60.8893H315.163C315.799 60.8893 316.315 60.4142 316.315 59.8278V59.0191C316.315 58.4833 315.88 58.0318 315.304 57.9644C315.018 57.9307 312.524 57.56 311.584 57.341C309.7 56.9029 308.956 55.892 308.952 53.9679C308.942 48.199 308.942 42.4301 308.966 36.6611C308.966 36.3242 309.114 35.9198 309.333 35.6705C310.054 34.8482 310.829 34.0732 311.597 33.2948C314.148 30.7001 317.242 29.3725 320.888 29.3489C321.659 29.3422 322.434 29.3455 323.22 29.3489C323.974 29.3489 324.588 28.7356 324.581 27.9808C324.571 26.4173 324.554 24.9447 324.608 23.4755C324.642 22.5926 324.294 22.1512 323.516 21.9052V21.8985Z" fill="#22201D"/>
<path d="M248.577 57.9071C247.92 57.7655 247.277 57.6274 246.633 57.4825C244.227 56.9467 243.56 56.1616 243.445 53.7185C243.432 53.4254 243.435 53.1322 243.435 52.8357C243.435 46.7432 243.449 40.7587 243.425 34.6696C243.418 33.3116 243.361 31.9402 243.179 30.5956C242.684 26.9496 240.857 24.2337 237.407 22.7442C234.553 21.5109 231.567 21.2919 228.541 21.794C224.905 22.3972 221.755 24.1056 218.877 26.3397C218.402 26.7104 217.95 27.1147 217.468 27.5595C217.216 27.7921 216.868 27.755 216.649 27.5663C216.707 25.8545 216.761 24.1427 216.815 22.4376C216.831 21.949 216.451 21.5379 215.962 21.5109C214.722 21.4435 213.853 21.6659 211.477 22.4814C209.155 23.2767 206.833 24.0719 204.502 24.8672C204.067 25.0154 203.747 25.3895 203.666 25.8376V25.8444C203.521 26.6295 203.858 27.0372 204.586 27.3405C205.843 27.8595 207.042 28.5233 208.299 29.0456C208.299 29.0456 209.091 29.2646 209.071 30.4541C208.926 38.0663 208.99 54.3082 208.919 54.8642C208.761 56.1346 207.956 56.8355 206.79 57.1893C206.203 57.3679 205.614 57.5297 205.014 57.6644C203.167 58.0857 203.191 58.0789 203.174 59.9761C203.167 60.6466 203.319 60.8926 204.057 60.8892C209.829 60.8555 215.605 60.8724 221.377 60.8724C221.822 60.8724 222.179 60.5118 222.179 60.0704V58.6989C222.179 58.3215 221.916 57.9947 221.546 57.9138C220.868 57.7689 220.231 57.6307 219.595 57.4926C217.111 56.9534 216.36 56.0672 216.353 53.5163C216.336 46.5444 216.339 39.677 216.37 32.7017C216.37 32.3142 216.606 31.7548 216.909 31.5762C218.6 30.5788 220.279 29.5072 222.092 28.7726C225.067 27.5629 228.181 26.9968 231.399 27.7853C233.751 28.3615 235.412 29.6757 235.789 32.1693C236.008 33.6115 236.093 35.0841 236.099 36.5465C236.133 42.2919 236.12 47.9294 236.109 53.6713C236.106 55.865 235.473 56.7041 233.393 57.3342C232.935 57.4724 232.467 57.5768 231.998 57.6779C230.192 58.0755 230.229 58.0722 230.189 59.9558C230.172 60.7208 230.438 60.8892 231.156 60.8859C236.901 60.8589 242.65 60.8724 248.395 60.869H248.402C248.85 60.869 249.211 60.4984 249.211 60.0502V58.7124C249.211 58.3249 248.941 57.9913 248.564 57.9104L248.577 57.9071Z" fill="#22201D"/>
<path d="M161.602 57.8768C161.255 57.833 160.062 57.7049 159.819 57.6645C158.259 57.4118 156.709 57.0243 155.971 55.4439C155.563 54.5677 155.338 53.5737 155.203 52.6099C154.664 48.755 150.927 20.0452 150.442 16.0487C150.246 14.4414 149.882 12.8475 150.206 11.1997C150.583 9.2756 151.543 7.97827 153.558 7.62782C154.222 7.51325 155.937 7.25715 155.937 7.25715C156.574 7.25715 157.09 6.7517 157.09 6.1283V5.26903C157.09 4.69955 156.655 4.09974 156.079 4.02898C155.86 4.00202 155.166 4.02898 155.038 4.02898H143.52C142.796 4.02898 142.31 4.49063 142.071 5.21511C141.832 5.9396 125.873 45.5572 124.825 48.1485C124.714 48.4214 124.33 48.4248 124.212 48.1552C124.212 48.1552 124.212 48.1552 124.212 48.1485C119.781 37.7799 107.373 9.20484 105.938 5.17131C105.705 4.51422 105.314 4.03235 104.62 4.03235H92.4254C92.3647 4.03235 91.6571 4.04246 91.31 4.08289C90.7338 4.15029 90.2991 4.68607 90.2991 5.23533V6.06428C90.2991 6.66408 90.8045 7.09204 91.4515 7.15269C91.4515 7.15269 92.7118 7.31444 92.9376 7.35487C94.3326 7.59749 95.7681 7.80978 96.6914 9.06668C97.6282 10.3438 97.7832 11.8467 97.6282 13.3462C97.3485 16.0757 93.2004 47.6666 92.4725 53.0817C92.0648 56.1279 90.7372 57.3612 87.6808 57.6881C87.3338 57.7251 86.9867 57.7656 86.6396 57.8094C86.0634 57.8801 85.6287 58.3721 85.6287 58.9517V59.8312C85.6287 60.4681 86.1443 60.9836 86.7811 60.9836H103.967C104.603 60.9836 105.119 60.4681 105.119 59.8312V58.9888C105.119 58.4227 104.715 57.9374 104.155 57.8397C104.155 57.8397 101.251 57.3848 99.8421 57.0108C98.5279 56.6637 97.6956 55.7 97.4833 54.3521C97.3384 53.4389 97.2508 52.4819 97.3552 51.5687C97.9551 46.376 100.634 25.1065 101.325 19.661C101.426 18.859 101.54 18.0604 101.665 17.1674C101.706 16.8709 102.11 16.817 102.231 17.0899C102.238 17.1034 102.245 17.1169 102.248 17.1304C108.327 31.1921 114.433 45.2438 120.448 59.3325C121.034 60.7107 121.688 61.2667 123.16 61.0814C123.807 61.0005 124.107 60.8387 124.35 60.2389C130.176 45.9649 136.023 31.6976 141.866 17.4303V17.4235C141.984 17.1472 142.391 17.1944 142.435 17.4909C142.465 17.6763 142.489 17.8481 142.513 18.02C143.173 23.0408 146.199 45.7189 146.903 52.0472C147.287 55.491 145.956 56.8322 143.19 57.3713C142.371 57.5297 140.12 57.8431 139.824 57.8801C139.247 57.9509 138.813 58.4294 138.813 58.9989V59.8582C138.813 60.4816 139.328 60.987 139.965 60.987H161.46C162.097 60.987 162.613 60.4816 162.613 59.8582V58.9989C162.613 58.4294 162.178 57.9475 161.602 57.8801V57.8768Z" fill="#22201D"/>
<path d="M408.453 57.961C408.453 57.961 408.453 57.961 408.449 57.961C408.365 57.9307 407.577 57.7655 407.273 57.6948C404.183 56.9871 403.604 56.2559 403.604 53.0817C403.6 46.8039 403.617 40.57 403.594 34.2922C403.587 33.0151 403.53 31.7245 403.344 30.4642C402.852 27.1249 401.255 24.4999 398.141 22.9734C394.812 21.3458 391.311 21.1437 387.759 21.9726C384.535 22.724 381.704 24.3246 379.116 26.3532C378.533 26.8081 377.984 27.3068 377.451 27.7887C377.172 28.0414 376.727 27.8426 376.727 27.4686V5.02301C376.727 3.7223 375.504 2.73161 374.244 3.06521C374.21 3.07532 374.176 3.08543 374.142 3.09554C370.955 4.09971 367.807 5.22519 364.633 6.32371C364.128 6.49893 363.787 6.97743 363.787 7.51321C363.787 8.049 364.118 8.51064 364.613 8.69261C365.853 9.15089 367.076 9.61254 368.32 10.0034C369.01 10.2225 369.25 10.5122 369.25 11.2738C369.219 25.6995 369.25 54.1802 369.199 54.6014C369.058 55.7909 368.576 56.7715 367.336 57.1422C366.436 57.4117 364.434 57.9509 364.353 57.9879C363.845 58.1059 363.477 58.5204 363.477 59.0157V59.8244C363.477 60.4108 363.993 60.8859 364.63 60.8859H381.276C381.913 60.8859 382.429 60.4108 382.429 59.8244V59.0157C382.429 58.4799 381.994 58.0284 381.418 57.961C381.401 57.961 379.932 57.6139 379.342 57.4421C377.118 56.785 376.575 56.0672 376.569 53.7792C376.558 46.6995 376.559 39.6635 376.585 32.5838C376.589 32.2569 376.811 31.7852 377.077 31.6302C378.729 30.6597 380.366 29.6353 382.112 28.8704C385.178 27.5326 388.396 26.9968 391.722 27.8055C393.333 28.1964 394.714 28.9546 395.489 30.5148C396.147 31.8357 396.312 33.2611 396.312 34.7168V51.1812C396.312 52.2224 396.332 53.267 396.291 54.3049C396.224 55.8954 395.58 56.785 394.074 57.2567C393.282 57.5027 391.493 57.9475 391.412 57.9812C390.893 58.089 390.512 58.5136 390.512 59.0123V59.8211C390.512 60.4074 391.028 60.8825 391.665 60.8825H408.311C408.948 60.8825 409.464 60.4074 409.464 59.8211V59.0123C409.464 58.4766 409.029 58.025 408.453 57.9576V57.961Z" fill="#22201D"/>
<path d="M45.5715 60.0274C43.062 60.0274 40.5719 58.8984 38.5015 56.8077C35.428 53.794 33.723 49.6416 33.6974 45.1193C33.6814 42.112 34.4602 39.2397 35.8415 37.0397C34.7101 36.866 33.5115 36.7695 32.2456 36.7695H32.0052C30.7393 36.7695 29.5407 36.8628 28.4126 37.0365C29.7874 39.2301 30.5694 42.1056 30.5534 45.1161C30.531 49.6384 28.8228 53.7875 25.7493 56.8045C23.5251 59.0496 20.8138 60.1882 18.1185 60.0049C15.7597 59.8472 13.6284 58.6572 12.1189 56.663C9.63517 53.4852 9.46211 48.8793 11.6542 44.3442C13.2759 40.9927 16.3558 37.5061 20.9099 35.2482C19.2594 34.1063 17.6602 33.3666 15.9135 32.5625C13.0355 31.2341 9.77619 29.7288 5.7124 26.1361C0.514088 21.5141 -0.543522 12.952 3.49783 8.17889C5.66433 5.60898 9.132 4.10049 12.7375 4.12944C16.4648 4.16482 19.9613 5.84057 22.3329 8.73533C22.8361 9.30785 27.8998 15.2325 30.0951 23.9682C30.3259 24.8913 29.7522 25.8209 28.8228 26.0074L27.8966 26.194C27.1755 26.3387 26.4768 25.882 26.3037 25.1647C24.3135 17.0304 19.394 11.4114 19.3427 11.3535L19.2851 11.2859C17.6378 9.26282 15.2982 8.13386 12.7022 8.11135C10.2633 8.09205 7.93979 9.07627 6.52323 10.752C3.89523 13.8591 4.80221 19.9992 8.34681 23.1513C11.9683 26.3548 14.8207 27.6703 17.5769 28.944C20.0222 30.073 22.538 31.2341 25.2878 33.6207C27.3197 33.09 29.5599 32.7876 32.0052 32.7876H32.2456C34.6941 32.7876 36.9311 33.09 38.963 33.6207C41.7064 31.2373 44.2254 30.0762 46.6739 28.944C49.4301 27.6703 52.2825 26.3548 55.9072 23.148C59.4518 19.9992 60.3556 13.8591 57.7276 10.752C56.327 9.09235 54.0516 8.11135 51.6287 8.11135C51.603 8.11135 51.5742 8.11135 51.5486 8.11135C48.9494 8.13386 46.6131 9.26282 44.9657 11.2859L44.9081 11.3535C44.8568 11.4114 39.9373 17.0304 37.9503 25.1615C37.774 25.8788 37.0753 26.3323 36.3574 26.1908L35.4312 26.0042C34.5018 25.8177 33.9249 24.8881 34.1589 23.965C36.3574 15.2293 41.4179 9.30464 41.9211 8.73212C44.2959 5.84057 47.7892 4.16482 51.5165 4.12944C55.122 4.10371 58.5897 5.60898 60.7594 8.17889C64.7975 12.9553 63.7399 21.5141 58.5384 26.1361C54.4714 29.732 51.2121 31.2373 48.3341 32.5657C46.5874 33.373 44.985 34.1096 43.3377 35.2514C47.8918 37.5061 50.9749 40.9959 52.5934 44.3474C54.7855 48.8825 54.6124 53.4884 52.1286 56.6662C50.6191 58.6636 48.4879 59.8505 46.1291 60.0081C45.9432 60.0209 45.7542 60.0274 45.5683 60.0274H45.5715ZM39.995 38.1301C38.5143 39.6965 37.6554 42.2792 37.6714 45.0968C37.6811 47.0974 38.165 50.9089 41.2898 53.9644L41.3122 53.987C42.7159 55.4086 44.3408 56.1355 45.8695 56.0294C47.0874 55.949 48.1642 55.3314 48.9815 54.2443L49.0071 54.2121C50.5166 52.2887 50.5262 49.172 49.0295 46.081C47.5617 43.048 44.5651 39.8734 39.9982 38.1269L39.995 38.1301ZM24.2622 38.1301C19.6953 39.8766 16.6987 43.0512 15.2309 46.0842C13.7342 49.1752 13.7438 52.2919 15.2533 54.2153L15.279 54.2475C16.0962 55.3346 17.173 55.9522 18.3909 56.0326C19.9228 56.1355 21.5445 55.4118 22.9482 53.9902L22.9707 53.9677C26.0922 50.9121 26.5762 47.1006 26.589 45.1C26.605 42.2696 25.7365 39.6772 24.2654 38.1333L24.2622 38.1301Z" fill="#F86713"/>
</svg>
