<svg width="410" height="65" viewBox="0 0 410 65" fill="none" xmlns="http://www.w3.org/2000/svg">
<path d="M291.827 58.1633C291.585 57.4456 290.854 57.0176 290.109 57.1558C290.001 57.176 289.893 57.1962 289.789 57.2164C287.117 57.7118 285.607 56.8828 285.017 54.5173C284.839 53.8029 284.788 53.0413 284.785 52.3C284.765 47.2252 284.798 42.1471 284.761 37.069C284.751 35.6604 284.667 34.2384 284.438 32.8501C283.626 27.9337 280.906 24.6213 276.027 23.2701C272.064 22.1715 268.064 22.1884 264.071 23.0982C261.214 23.7485 258.619 24.9145 256.658 27.1991C254.879 29.2715 254.508 32.6075 255.775 34.818C256.213 35.5829 256.715 35.8963 257.696 35.7919C258.056 35.7548 260.435 35.4212 261.864 35.2493C262.265 35.1988 262.555 34.845 262.525 34.444C262.44 33.2713 262.329 32.1627 262.363 31.0608C262.43 28.9716 263.313 27.3339 265.46 26.7105C266.315 26.4612 267.225 26.3095 268.115 26.2826C271.404 26.1815 274.13 27.2328 275.862 30.2352C276.286 30.9698 276.607 31.7246 276.839 32.4929C277.786 35.5863 276.024 38.8515 272.93 39.8018C272.93 39.8018 272.9 39.8085 272.886 39.8153C268.196 41.2541 263.495 42.6593 258.828 44.1723C257.005 44.762 255.431 45.8369 254.316 47.4578C252.924 49.4829 252.759 51.7474 252.992 54.1129C253.372 57.9813 256.095 61.2803 260.112 62.18C265.079 63.292 269.759 62.5709 273.887 59.3966C274.517 58.9114 275.124 58.4025 275.73 57.8802C276.684 57.058 278.153 57.395 278.669 58.5441C278.672 58.5542 278.676 58.5609 278.679 58.5677C280.044 61.5835 282.089 62.8034 285.324 62.5944C287.74 62.4394 289.647 61.314 291.389 59.8178C291.858 59.4135 292.036 58.7631 291.838 58.1768L291.831 58.1566L291.827 58.1633ZM277.402 52.4752C277.402 52.6976 277.253 53.0043 277.075 53.1222C275.35 54.2713 273.692 55.572 271.842 56.4717C269.314 57.6983 266.605 57.8027 263.947 56.7278C262.022 55.9494 260.995 54.4196 260.739 52.4146C260.506 50.6084 260.483 48.7382 262.11 47.5083C263.084 46.7737 264.253 46.2211 265.416 45.8336C269.085 44.6104 272.792 43.5017 276.485 42.356H276.495C276.954 42.2111 277.419 42.5548 277.419 43.0333C277.419 46.2413 277.422 49.3583 277.405 52.4752H277.402Z" fill="white"/>
<path d="M190.241 23.644C185.183 21.8581 180.061 21.9693 175.054 23.8631C170.474 25.5951 166.983 28.702 164.628 33.0287C162.603 36.7488 161.952 40.7486 162.229 44.9102C162.589 50.3354 164.692 54.962 168.955 58.4497C172.115 61.0342 176.011 62.3619 180.048 62.709C182.295 62.901 185.237 62.7326 187.431 62.2237C192.741 60.9938 196.29 58.0251 199.275 53.3951C202.419 48.5225 203.157 43.1647 202.096 37.6013C200.798 30.7811 196.849 25.9792 190.238 23.6407L190.241 23.644ZM194.777 43.4073C194.77 46.9927 194.406 49.9243 192.997 52.647C191.198 56.1246 188.354 57.9442 184.432 58.0959C178.727 58.3183 174.72 55.6158 172.213 50.6994C169.494 45.3618 169.076 39.7209 171.03 34.0463C172.833 28.8098 176.877 26.478 182.292 27.0845C188.068 27.7281 191.397 31.3573 193.395 36.4792C193.82 37.5643 194.126 38.71 194.339 39.8557C194.591 41.2137 194.682 42.5986 194.777 43.4073Z" fill="white"/>
<path d="M360.782 51.161H360.778C360.552 51.07 360.34 50.9757 360.145 50.851C359.599 50.5107 359.289 50.6387 358.895 51.1138C357.742 52.5055 356.303 53.5602 354.719 54.4195C351.35 56.2459 347.741 56.6267 344.017 56.0774C338.919 55.3226 335.566 52.428 333.935 47.5622C332.877 44.3946 332.739 41.1362 333.194 37.8507C333.544 35.2998 334.393 32.9208 336.085 30.9394C339.33 27.1317 343.535 26.1342 348.293 26.9868C350.305 27.344 351.744 28.4998 352.411 30.4711C352.647 31.1652 352.806 31.9099 352.843 32.6411C352.843 32.6546 352.846 32.6681 352.846 32.6782C352.95 34.7742 354.585 36.4691 356.677 36.6342C356.711 36.6342 356.745 36.641 356.778 36.6443C358.281 36.7758 359.215 35.9974 359.932 34.882C361.078 33.096 360.953 31.1686 360.246 29.2782C359.127 26.2724 356.758 24.5539 353.857 23.5699C348.907 21.8952 343.926 22.0805 339.037 23.8125C333.288 25.8478 329.363 29.8477 327.337 35.5593C325.346 41.1833 325.38 46.8276 327.785 52.3876C329.47 56.283 332.274 59.0697 336.051 60.8927C339.155 62.3888 342.464 62.7393 345.877 62.6079C350.413 62.4327 354.44 61.1084 357.695 57.8128C359.269 56.2223 360.488 54.4262 361.274 52.2831C361.439 51.8349 361.223 51.3362 360.782 51.161Z" fill="white"/>
<path d="M323.516 22.7916C320.911 21.9727 318.451 22.2928 316.234 23.8766C313.956 25.5042 312.494 27.8495 310.991 30.1442C310.472 30.9361 309.983 31.7482 309.488 32.5603C309.431 32.6547 309.326 32.712 309.218 32.7018C309.175 32.6985 309.141 32.6816 309.097 32.6513C309.016 32.594 308.969 32.4997 308.969 32.3986C309.067 29.3658 309.165 26.3331 309.262 23.3071C309.279 22.8185 308.902 22.4074 308.41 22.3805C307.166 22.3131 306.3 22.5355 303.925 23.3509C301.603 24.1462 299.281 24.9414 296.949 25.7367C296.515 25.8849 296.195 26.259 296.114 26.7071V26.7139C295.969 27.499 296.309 27.9068 297.037 28.21C298.338 28.7492 299.578 29.44 300.885 29.969C301.465 30.2049 301.61 30.5014 301.606 31.0878C301.586 37.2307 301.613 53.4154 301.566 55.3631C301.536 56.6301 300.922 57.4287 299.699 58.0386C298.574 58.598 296.498 58.8204 296.178 58.8575C295.601 58.9249 295.167 59.3764 295.167 59.9122V60.7209C295.167 61.3072 295.682 61.7824 296.319 61.7824H315.163C315.799 61.7824 316.315 61.3072 316.315 60.7209V59.9122C316.315 59.3764 315.88 58.9249 315.304 58.8575C315.018 58.8238 312.524 58.4531 311.584 58.2341C309.7 57.796 308.956 56.7851 308.952 54.861C308.942 49.0921 308.942 43.3231 308.966 37.5542C308.966 37.2172 309.114 36.8129 309.333 36.5635C310.054 35.7413 310.829 34.9663 311.597 34.1879C314.148 31.5932 317.242 30.2656 320.888 30.242C321.659 30.2352 322.434 30.2386 323.22 30.242C323.974 30.242 324.588 29.6287 324.581 28.8739C324.571 27.3103 324.554 25.8378 324.608 24.3686C324.642 23.4857 324.294 23.0443 323.516 22.7983V22.7916Z" fill="white"/>
<path d="M248.577 58.8001C247.92 58.6586 247.277 58.5204 246.633 58.3755C244.227 57.8398 243.56 57.0546 243.445 54.6116C243.432 54.3184 243.435 54.0253 243.435 53.7287C243.435 47.6363 243.449 41.6517 243.425 35.5627C243.418 34.2047 243.361 32.8332 243.179 31.4887C242.684 27.8427 240.857 25.1267 237.407 23.6373C234.553 22.404 231.567 22.185 228.541 22.6871C224.905 23.2902 221.755 24.9987 218.877 27.2328C218.402 27.6034 217.95 28.0078 217.468 28.4526C217.216 28.6851 216.868 28.6481 216.649 28.4594C216.707 26.7475 216.761 25.0357 216.815 23.3307C216.831 22.8421 216.451 22.431 215.962 22.404C214.722 22.3366 213.853 22.559 211.477 23.3745C209.155 24.1697 206.833 24.965 204.502 25.7602C204.067 25.9085 203.747 26.2825 203.666 26.7307V26.7374C203.521 27.5226 203.858 27.9303 204.586 28.2336C205.843 28.7525 207.042 29.4163 208.299 29.9387C208.299 29.9387 209.091 30.1577 209.071 31.3472C208.926 38.9593 208.99 55.2013 208.919 55.7573C208.761 57.0277 207.956 57.7286 206.79 58.0824C206.203 58.261 205.614 58.4227 205.014 58.5575C203.167 58.9787 203.191 58.972 203.174 60.8691C203.167 61.5397 203.319 61.7857 204.057 61.7823C209.829 61.7486 215.605 61.7655 221.377 61.7655C221.822 61.7655 222.179 61.4049 222.179 60.9635V59.592C222.179 59.2146 221.916 58.8877 221.546 58.8069C220.868 58.662 220.231 58.5238 219.595 58.3857C217.111 57.8465 216.36 56.9603 216.353 54.4094C216.336 47.4375 216.339 40.5701 216.37 33.5948C216.37 33.2073 216.606 32.6479 216.909 32.4693C218.6 31.4719 220.279 30.4003 222.092 29.6657C225.067 28.456 228.181 27.8899 231.399 28.6784C233.751 29.2546 235.412 30.5688 235.789 33.0624C236.008 34.5046 236.093 35.9772 236.099 37.4396C236.133 43.1849 236.12 48.8224 236.109 54.5644C236.106 56.7581 235.473 57.5971 233.393 58.2273C232.935 58.3654 232.467 58.4699 231.998 58.571C230.192 58.9686 230.229 58.9652 230.189 60.8489C230.172 61.6138 230.438 61.7823 231.156 61.7789C236.901 61.752 242.65 61.7655 248.395 61.7621H248.402C248.85 61.7621 249.211 61.3914 249.211 60.9433V59.6055C249.211 59.218 248.941 58.8844 248.564 58.8035L248.577 58.8001Z" fill="white"/>
<path d="M161.602 58.7698C161.255 58.726 160.062 58.598 159.819 58.5576C158.259 58.3048 156.709 57.9173 155.971 56.3369C155.563 55.4608 155.338 54.4667 155.203 53.503C154.664 49.6481 150.927 20.9382 150.442 16.9418C150.246 15.3344 149.882 13.7405 150.206 12.0928C150.583 10.1687 151.543 8.87133 153.558 8.52088C154.222 8.40631 155.937 8.15022 155.937 8.15022C156.574 8.15022 157.09 7.64476 157.09 7.02137V6.16209C157.09 5.59262 156.655 4.99281 156.079 4.92205C155.86 4.89509 155.166 4.92205 155.038 4.92205H143.52C142.796 4.92205 142.31 5.38369 142.071 6.10818C141.832 6.83267 125.873 46.4502 124.825 49.0415C124.714 49.3145 124.33 49.3178 124.212 49.0483C124.212 49.0483 124.212 49.0483 124.212 49.0415C119.781 38.673 107.373 10.0979 105.938 6.06437C105.705 5.40728 105.314 4.92542 104.62 4.92542H92.4254C92.3647 4.92542 91.6571 4.93552 91.31 4.97596C90.7338 5.04335 90.2991 5.57914 90.2991 6.1284V6.95734C90.2991 7.55715 90.8045 7.9851 91.4515 8.04576C91.4515 8.04576 92.7118 8.2075 92.9376 8.24794C94.3326 8.49056 95.7681 8.70285 96.6914 9.95975C97.6282 11.2369 97.7832 12.7397 97.6282 14.2393C97.3485 16.9687 93.2004 48.5597 92.4725 53.9748C92.0648 57.021 90.7372 58.2543 87.6808 58.5811C87.3338 58.6182 86.9867 58.6586 86.6396 58.7025C86.0634 58.7732 85.6287 59.2652 85.6287 59.8448V60.7243C85.6287 61.3611 86.1443 61.8767 86.7811 61.8767H103.967C104.603 61.8767 105.119 61.3611 105.119 60.7243V59.8818C105.119 59.3157 104.715 58.8305 104.155 58.7328C104.155 58.7328 101.251 58.2779 99.8421 57.9038C98.5279 57.5568 97.6956 56.593 97.4833 55.2451C97.3384 54.332 97.2508 53.375 97.3552 52.4618C97.9551 47.2691 100.634 25.9995 101.325 20.5541C101.426 19.7521 101.54 18.9535 101.665 18.0605C101.706 17.764 102.11 17.7101 102.231 17.983C102.238 17.9965 102.245 18.01 102.248 18.0234C108.327 32.0852 114.433 46.1368 120.448 60.2256C121.034 61.6038 121.688 62.1598 123.16 61.9744C123.807 61.8936 124.107 61.7318 124.35 61.132C130.176 46.858 136.023 32.5907 141.866 18.3233V18.3166C141.984 18.0403 142.391 18.0875 142.435 18.384C142.465 18.5693 142.489 18.7412 142.513 18.913C143.173 23.9339 146.199 46.612 146.903 52.9403C147.287 56.3841 145.956 57.7252 143.19 58.2644C142.371 58.4228 140.12 58.7361 139.824 58.7732C139.247 58.844 138.813 59.3225 138.813 59.892V60.7512C138.813 61.3746 139.328 61.8801 139.965 61.8801H161.46C162.097 61.8801 162.613 61.3746 162.613 60.7512V59.892C162.613 59.3225 162.178 58.8406 161.602 58.7732V58.7698Z" fill="white"/>
<path d="M408.453 58.8541C408.453 58.8541 408.453 58.8541 408.449 58.8541C408.365 58.8237 407.577 58.6586 407.273 58.5879C404.183 57.8802 403.604 57.149 403.604 53.9747C403.6 47.697 403.617 41.463 403.594 35.1853C403.587 33.9082 403.53 32.6176 403.344 31.3573C402.852 28.0179 401.255 25.3929 398.141 23.8665C394.812 22.2389 391.311 22.0367 387.759 22.8657C384.535 23.6171 381.704 25.2177 379.116 27.2463C378.533 27.7012 377.984 28.1999 377.451 28.6818C377.172 28.9345 376.727 28.7357 376.727 28.3616V5.91607C376.727 4.61537 375.504 3.62467 374.244 3.95827C374.21 3.96838 374.176 3.97849 374.142 3.9886C370.955 4.99277 367.807 6.11825 364.633 7.21677C364.128 7.392 363.787 7.8705 363.787 8.40628C363.787 8.94206 364.118 9.40371 364.613 9.58567C365.853 10.044 367.076 10.5056 368.32 10.8965C369.01 11.1155 369.25 11.4053 369.25 12.1669C369.219 26.5925 369.25 55.0733 369.199 55.4945C369.058 56.684 368.576 57.6646 367.336 58.0352C366.436 58.3048 364.434 58.8439 364.353 58.881C363.845 58.999 363.477 59.4134 363.477 59.9088V60.7175C363.477 61.3038 363.993 61.779 364.63 61.779H381.276C381.913 61.779 382.429 61.3038 382.429 60.7175V59.9088C382.429 59.373 381.994 58.9215 381.418 58.8541C381.401 58.8541 379.932 58.507 379.342 58.3351C377.118 57.678 376.575 56.9603 376.569 54.6723C376.558 47.5925 376.559 40.5566 376.585 33.4768C376.589 33.15 376.811 32.6782 377.077 32.5232C378.729 31.5527 380.366 30.5284 382.112 29.7634C385.178 28.4257 388.396 27.8899 391.722 28.6986C393.333 29.0895 394.714 29.8477 395.489 31.4079C396.147 32.7288 396.312 34.1542 396.312 35.6099V52.0742C396.312 53.1155 396.332 54.1601 396.291 55.1979C396.224 56.7884 395.58 57.678 394.074 58.1498C393.282 58.3958 391.493 58.8406 391.412 58.8743C390.893 58.9821 390.512 59.4067 390.512 59.9054V60.7141C390.512 61.3005 391.028 61.7756 391.665 61.7756H408.311C408.948 61.7756 409.464 61.3005 409.464 60.7141V59.9054C409.464 59.3696 409.029 58.9181 408.453 58.8507V58.8541Z" fill="white"/>
<path d="M45.5715 60.9204C43.062 60.9204 40.5719 59.7915 38.5015 57.7008C35.428 54.687 33.723 50.5347 33.6974 46.0124C33.6814 43.0051 34.4602 40.1328 35.8415 37.9328C34.7101 37.7591 33.5115 37.6626 32.2456 37.6626H32.0052C30.7393 37.6626 29.5407 37.7559 28.4126 37.9296C29.7874 40.1232 30.5694 42.9986 30.5534 46.0092C30.531 50.5314 28.8228 54.6806 25.7493 57.6976C23.5251 59.9426 20.8138 61.0813 18.1185 60.8979C15.7597 60.7403 13.6284 59.5502 12.1189 57.5561C9.63517 54.3783 9.46211 49.7724 11.6542 45.2372C13.2759 41.8857 16.3558 38.3992 20.9099 36.1412C19.2594 34.9994 17.6602 34.2596 15.9135 33.4555C13.0355 32.1272 9.77619 30.6219 5.7124 27.0292C0.514088 22.4072 -0.543522 13.8451 3.49783 9.07196C5.66433 6.50206 9.132 4.99356 12.7375 5.02251C16.4648 5.05789 19.9613 6.73364 22.3329 9.6284C22.8361 10.2009 27.8998 16.1255 30.0951 24.8613C30.3259 25.7844 29.7522 26.714 28.8228 26.9005L27.8966 27.0871C27.1755 27.2318 26.4768 26.7751 26.3037 26.0578C24.3135 17.9235 19.394 12.3045 19.3427 12.2466L19.2851 12.179C17.6378 10.1559 15.2982 9.02693 12.7022 9.00442C10.2633 8.98512 7.93979 9.96934 6.52323 11.6451C3.89523 14.7521 4.80221 20.8923 8.34681 24.0443C11.9683 27.2479 14.8207 28.5634 17.5769 29.8371C20.0222 30.966 22.538 32.1272 25.2878 34.5137C27.3197 33.983 29.5599 33.6807 32.0052 33.6807H32.2456C34.6941 33.6807 36.9311 33.983 38.963 34.5137C41.7064 32.1304 44.2254 30.9693 46.6739 29.8371C49.4301 28.5634 52.2825 27.2479 55.9072 24.0411C59.4518 20.8923 60.3556 14.7521 57.7276 11.6451C56.327 9.98542 54.0516 9.00442 51.6287 9.00442C51.603 9.00442 51.5742 9.00442 51.5486 9.00442C48.9494 9.02693 46.6131 10.1559 44.9657 12.179L44.9081 12.2466C44.8568 12.3045 39.9373 17.9235 37.9503 26.0546C37.774 26.7719 37.0753 27.2254 36.3574 27.0838L35.4312 26.8973C34.5018 26.7107 33.9249 25.7812 34.1589 24.8581C36.3574 16.1223 41.4179 10.1977 41.9211 9.62519C44.2959 6.73364 47.7892 5.05789 51.5165 5.02251C55.122 4.99678 58.5897 6.50206 60.7594 9.07196C64.7975 13.8483 63.7399 22.4072 58.5384 27.0292C54.4714 30.6251 51.2121 32.1304 48.3341 33.4588C46.5874 34.2661 44.985 35.0026 43.3377 36.1445C47.8918 38.3992 50.9749 41.889 52.5934 45.2405C54.7855 49.7756 54.6124 54.3815 52.1286 57.5593C50.6191 59.5567 48.4879 60.7435 46.1291 60.9011C45.9432 60.914 45.7542 60.9204 45.5683 60.9204H45.5715ZM39.995 39.0231C38.5143 40.5895 37.6554 43.1723 37.6714 45.9899C37.6811 47.9905 38.165 51.8019 41.2898 54.8575L41.3122 54.88C42.7159 56.3017 44.3408 57.0286 45.8695 56.9224C47.0874 56.842 48.1642 56.2245 48.9815 55.1373L49.0071 55.1052C50.5166 53.1818 50.5262 50.0651 49.0295 46.9741C47.5617 43.941 44.5651 40.7664 39.9982 39.0199L39.995 39.0231ZM24.2622 39.0231C19.6953 40.7696 16.6987 43.9442 15.2309 46.9773C13.7342 50.0683 13.7438 53.185 15.2533 55.1084L15.279 55.1406C16.0962 56.2277 17.173 56.8453 18.3909 56.9257C19.9228 57.0286 21.5445 56.3049 22.9482 54.8832L22.9707 54.8607C26.0922 51.8051 26.5762 47.9937 26.589 45.9931C26.605 43.1627 25.7365 40.5702 24.2654 39.0264L24.2622 39.0231Z" fill="#F86713"/>
</svg>
